<svg width="16" height="22" viewBox="0 0 16 22" fill="none" xmlns="http://www.w3.org/2000/svg">
<path d="M7.875 21.75C12.0171 21.75 15.375 20.9105 15.375 19.875C15.375 18.8395 12.0171 18 7.875 18C3.73286 18 0.375 18.8395 0.375 19.875C0.375 20.9105 3.73286 21.75 7.875 21.75Z" fill="#006DF0"/>
<path d="M15.75 7.875C15.75 9.39 14.7975 11.2988 13.5563 13.1475C12.365 14.8752 11.0503 16.5145 9.6225 18.0525C8.60625 19.1625 7.875 19.875 7.875 19.875C7.875 19.875 7.14375 19.1625 6.1275 18.0525C3.80625 15.5175 0 10.9012 0 7.875C0 5.78642 0.829685 3.78338 2.30653 2.30653C3.78338 0.829685 5.78642 0 7.875 0C9.96358 0 11.9666 0.829685 13.4435 2.30653C14.9203 3.78338 15.75 5.78642 15.75 7.875Z" fill="#ED1C24"/>
<path d="M7.875 13.5C10.9816 13.5 13.5 10.9816 13.5 7.875C13.5 4.7684 10.9816 2.25 7.875 2.25C4.7684 2.25 2.25 4.7684 2.25 7.875C2.25 10.9816 4.7684 13.5 7.875 13.5Z" fill="#F1F2F2"/>
<path d="M7.875 2.25C7.68525 2.25 7.49775 2.26013 7.3125 2.2785C8.69937 2.41864 9.98481 3.06874 10.9196 4.10276C11.8544 5.13678 12.372 6.48107 12.372 7.875C12.372 9.26893 11.8544 10.6132 10.9196 11.6472C9.98481 12.6813 8.69937 13.3314 7.3125 13.4715C7.49775 13.4899 7.68525 13.5 7.875 13.5C9.36684 13.5 10.7976 12.9074 11.8525 11.8525C12.9074 10.7976 13.5 9.36684 13.5 7.875C13.5 6.38316 12.9074 4.95242 11.8525 3.89752C10.7976 2.84263 9.36684 2.25 7.875 2.25Z" fill="#D1D3D4"/>
<path d="M10.875 6.375H4.875L5.25 4.875H10.5L10.875 6.375Z" fill="#A97C50"/>
<path d="M4.875 6.375H10.875V10.875H4.875V6.375Z" fill="#8B5E3C"/>
<path d="M6.375 10.875H10.875V6.375C10.875 7.56847 10.4009 8.71307 9.55698 9.55698C8.71307 10.4009 7.56847 10.875 6.375 10.875Z" fill="#754C29"/>
<path d="M7.125 6.375H8.625V7.875H7.125V6.375Z" fill="#EE8700"/>
<path d="M7.125 4.875H8.625V6.375H7.125V4.875Z" fill="#FF9811"/>
<path d="M8.625 9.375C8.52554 9.375 8.43016 9.41451 8.35983 9.48483C8.28951 9.55516 8.25 9.65054 8.25 9.75C8.25 9.84946 8.28951 9.94484 8.35983 10.0152C8.43016 10.0855 8.52554 10.125 8.625 10.125H9.75C9.84946 10.125 9.94484 10.0855 10.0152 10.0152C10.0855 9.94484 10.125 9.84946 10.125 9.75C10.125 9.65054 10.0855 9.55516 10.0152 9.48483C9.94484 9.41451 9.84946 9.375 9.75 9.375H8.625Z" fill="#F1F2F2"/>
</svg>
